# xmcd
#
# Track frame offsets:
#	150
#	15522
#	29770
#	46613
#	63870
#	82320
#	96776
#	112276
#	126996
#	145968
#	161021
#	172242
#	185256
#
# Disc length: 2665 seconds
#
# Revision: 1
# Processed by: cddbd v1.5.2PL0 Copyright (c) Steve Scherf et al.
# Submitted via: audiograbber 1.83.01
#
DISCID=b90a670d
DTITLE=Jeremy Staubus - Dam Town
DYEAR=2012
DGENRE=Country
TTITLE0=Fine With That
TTITLE1=Nascar
TTITLE2=Fool
TTITLE3=Make It Up To You
TTITLE4=Flyin' Now
TTITLE5=Say I Do
TTITLE6=Cowgirl
TTITLE7=Drink 'Til In The Morning
TTITLE8=Tossing Around
TTITLE9=64 To 95
TTITLE10=We Don't Need You Around Here No More
TTITLE11=Memories
TTITLE12=We Can Grow Old Together
EXTD=
EXTT0=
EXTT1=
EXTT2=
EXTT3=
EXTT4=
EXTT5=
EXTT6=
EXTT7=
EXTT8=
EXTT9=
EXTT10=
EXTT11=
EXTT12=
PLAYORDER=
